<svg width="27" height="26" viewBox="0 0 27 26" version="1.1" xmlns="http://www.w3.org/2000/svg" xmlns:xlink="http://www.w3.org/1999/xlink">
<title>github</title>
<desc>Created using Figma</desc>
<g id="Canvas" transform="translate(-1157 -18)">
<g id="github">
<use xlink:href="#path0_fill" transform="translate(1157 18)" fill="#FFFFFF"/>
<use xlink:href="#path1_fill" transform="translate(1157 18)" fill="#FFFFFF"/>
</g>
</g>
<defs>
<path id="path0_fill" fill-rule="evenodd" d="M 13.4999 0C 6.04508 0 0 5.96729 0 13.3291C 0 19.2185 3.86813 24.2146 9.23205 25.9773C 9.90651 26.1009 10.1542 25.6882 10.1542 25.3361C 10.1542 25.0183 10.1417 23.9683 10.1359 22.8545C 6.38019 23.6608 5.58769 21.2818 5.58769 21.2818C 4.9736 19.7412 4.08878 19.3315 4.08878 19.3315C 2.86371 18.5042 4.1811 18.5215 4.1811 18.5215C 5.5365 18.6153 6.25053 19.895 6.25053 19.895C 7.45458 21.9323 9.40865 21.3434 10.179 21.0031C 10.3002 20.1416 10.65 19.5533 11.0361 19.2205C 8.03761 18.8839 4.88529 17.7407 4.88529 12.6334C 4.88529 11.1782 5.41288 9.98912 6.27646 9.05545C 6.13607 8.71995 5.67399 7.36426 6.40701 5.52827C 6.40701 5.52827 7.54043 5.17003 10.1202 6.89456C 11.1973 6.59901 12.3524 6.45046 13.4999 6.44538C 14.6467 6.45046 15.8025 6.59857 16.8816 6.89412C 19.4582 5.16959 20.5903 5.52783 20.5903 5.52783C 21.3251 7.3636 20.863 8.71951 20.7229 9.05501C 21.5885 9.98868 22.1122 11.1777 22.1122 12.633C 22.1122 17.7524 18.9541 18.8795 15.948 19.2097C 16.4324 19.6233 16.8639 20.4347 16.8639 21.678C 16.8639 23.4615 16.8483 24.8969 16.8483 25.3359C 16.8483 25.6906 17.0915 26.1062 17.7756 25.9753C 23.1363 24.2109 27 19.2163 27 13.3291C 26.9998 5.96773 20.9554 0 13.4999 0Z"/>
<path id="path1_fill" d="M 5.11313 19.1375C 5.0834 19.2037 4.97788 19.2236 4.88175 19.1783C 4.78339 19.1351 4.72862 19.0448 4.76036 18.9784C 4.78943 18.9099 4.89517 18.8912 4.99286 18.9369C 5.09122 18.9803 5.14733 19.0713 5.11313 19.1375ZM 5.65994 19.7399C 5.59578 19.7988 5.46992 19.7714 5.38452 19.678C 5.296 19.5853 5.27945 19.4611 5.34495 19.4013C 5.41157 19.3425 5.53363 19.3704 5.62216 19.4631C 5.71024 19.5571 5.72745 19.68 5.65994 19.7399ZM 6.19244 20.5073C 6.10973 20.5643 5.97425 20.5111 5.89065 20.3925C 5.80793 20.2738 5.80793 20.1314 5.89288 20.0747C 5.97627 20.0177 6.10973 20.0692 6.19468 20.1866C 6.27694 20.3069 6.27694 20.4495 6.19244 20.5073ZM 6.92145 21.2492C 6.84767 21.3297 6.68985 21.3081 6.57449 21.1984C 6.45668 21.0909 6.42382 20.9379 6.49781 20.8576C 6.57293 20.7768 6.73143 20.7993 6.84745 20.9084C 6.96526 21.0156 7.00036 21.169 6.92145 21.2492ZM 7.92743 21.6798C 7.89457 21.7842 7.743 21.8317 7.58987 21.7871C 7.43718 21.7414 7.33725 21.6193 7.36855 21.5138C 7.39985 21.4085 7.55253 21.3593 7.70656 21.4068C 7.85925 21.4522 7.95918 21.5736 7.92743 21.6798ZM 9.03245 21.7595C 9.03625 21.8694 8.90659 21.9603 8.7463 21.9626C 8.58468 21.9663 8.4539 21.8771 8.45233 21.769C 8.45233 21.6579 8.57931 21.5681 8.74072 21.565C 8.901 21.5622 9.03245 21.6507 9.03245 21.7595ZM 10.0603 21.5869C 10.0796 21.6939 9.96802 21.8041 9.80863 21.8334C 9.65214 21.8621 9.50683 21.7955 9.48671 21.6893C 9.46748 21.5794 9.58105 21.4692 9.73754 21.4408C 9.89715 21.4136 10.0402 21.4781 10.0603 21.5869Z"/>
</defs>
</svg>
