<svg width="63" height="58" viewBox="0 0 63 58" version="1.1" xmlns="http://www.w3.org/2000/svg" xmlns:xlink="http://www.w3.org/1999/xlink">
<title>react</title>
<desc>Created using Figma</desc>
<g id="Canvas" transform="translate(-2243 -441)">
<g id="react">
<use xlink:href="#path0_fill" transform="translate(2243.15 441.888)" fill="#FFFFFF"/>
<use xlink:href="#path1_fill" transform="translate(2243.15 441.888)" fill="#FFFFFF"/>
</g>
</g>
<defs>
<path id="path0_fill" d="M 31.3666 34.3122C 34.5213 34.3122 37.0787 31.71 37.0787 28.5C 37.0787 25.2901 34.5213 22.6879 31.3666 22.6879C 28.2119 22.6879 25.6545 25.2901 25.6545 28.5C 25.6545 31.71 28.2119 34.3122 31.3666 34.3122Z"/>
<path id="path1_fill" d="M 53.0622 18.915C 51.9599 18.5072 50.8074 18.0993 49.6049 17.7424C 49.9055 16.5188 50.156 15.2952 50.3565 14.1225C 51.4087 7.39266 50.2563 2.65116 47.0495 0.815742C 46.0975 0.254919 45.0452 0 43.8427 0C 40.3353 0 35.8759 2.65116 31.3663 7.08676C 26.8568 2.65116 22.3974 0 18.8899 0C 17.6874 0 16.6352 0.254919 15.6832 0.815742C 12.4764 2.70215 11.3239 7.44365 12.3762 14.1225C 12.5766 15.2952 12.8271 16.5188 13.1278 17.7424C 11.9252 18.0993 10.7728 18.4562 9.67045 18.915C 3.4072 21.3623 0 24.7272 0 28.5C 0 32.2728 3.45731 35.6377 9.67045 38.085C 10.7728 38.4928 11.9252 38.9007 13.1278 39.2576C 12.8271 40.4812 12.5766 41.7048 12.3762 42.8775C 11.3239 49.6073 12.4764 54.3488 15.6832 56.1843C 16.6352 56.7451 17.6874 57 18.8899 57C 22.4475 57 26.9069 54.3488 31.3663 49.9132C 35.8759 54.3488 40.3353 57 43.8427 57C 45.0452 57 46.0975 56.7451 47.0495 56.1843C 50.2563 54.2979 51.4087 49.5563 50.3565 42.8775C 50.156 41.7048 49.9055 40.4812 49.6049 39.2576C 50.8074 38.9007 51.9599 38.5438 53.0622 38.085C 59.3254 35.6377 62.7326 32.2728 62.7326 28.5C 62.7326 24.7272 59.3254 21.3623 53.0622 18.915ZM 45.6465 3.36494C 47.7009 4.58855 48.4023 8.36136 47.5505 13.7147C 47.4002 14.7853 47.1497 15.907 46.8491 17.0796C 44.2435 16.4678 41.4877 16.0599 38.5816 15.805C 36.878 13.3578 35.1243 11.1655 33.3706 9.1771C 37.0784 5.45528 40.8363 2.90608 43.8928 2.90608C 44.5442 2.90608 45.1454 3.05903 45.6465 3.36494ZM 40.0346 33.5984C 39.1327 35.2299 38.0805 36.8614 36.9782 38.4928C 35.1243 38.6458 33.2703 38.6968 31.3663 38.6968C 29.4122 38.6968 27.5583 38.6458 25.7544 38.4928C 24.6521 36.8614 23.65 35.2299 22.7481 33.5984C 21.7961 31.9159 20.8942 30.1825 20.0925 28.5C 20.8942 26.8175 21.7961 25.0841 22.7481 23.4016C 23.65 21.7701 24.7022 20.1386 25.8046 18.5072C 27.6585 18.3542 29.5124 18.3032 31.4164 18.3032C 33.3706 18.3032 35.2245 18.3542 37.0283 18.5072C 38.1306 20.1386 39.1327 21.7701 40.0346 23.4016C 40.9867 25.0841 41.8886 26.8175 42.6903 28.5C 41.8385 30.1825 40.9867 31.8649 40.0346 33.5984ZM 44.1934 31.9159C 44.945 33.7004 45.5463 35.4338 46.0975 37.1673C 44.3939 37.5751 42.59 37.881 40.686 38.136C 41.2873 37.1673 41.9387 36.1476 42.4898 35.0769C 43.0911 34.0063 43.6423 32.9356 44.1934 31.9159ZM 31.3663 45.7326C 30.1638 44.407 29.0113 42.9794 27.909 41.5009C 29.0614 41.5519 30.2139 41.6029 31.3663 41.6029C 32.5188 41.6029 33.6712 41.5519 34.8236 41.5009C 33.7213 42.9794 32.5689 44.407 31.3663 45.7326ZM 22.0466 38.085C 20.1426 37.8301 18.3388 37.5242 16.6352 37.1163C 17.1863 35.4338 17.7876 33.6494 18.5392 31.8649C 19.0904 32.8846 19.6415 33.9553 20.2428 34.975C 20.8441 36.0966 21.4453 37.0653 22.0466 38.085ZM 18.5392 25.0841C 17.7876 23.2996 17.1863 21.5662 16.6352 19.8327C 18.3388 19.4249 20.1426 19.119 22.0466 18.864C 21.4453 19.8327 20.794 20.8524 20.2428 21.9231C 19.6415 22.9937 19.0904 24.0644 18.5392 25.0841ZM 31.3663 11.2674C 32.5689 12.593 33.7213 14.0206 34.8236 15.4991C 33.6712 15.4481 32.5188 15.3971 31.3663 15.3971C 30.2139 15.3971 29.0614 15.4481 27.909 15.4991C 29.0113 14.0206 30.1638 12.593 31.3663 11.2674ZM 42.4898 21.9741L 40.686 18.915C 42.59 19.1699 44.3939 19.4758 46.0975 19.8837C 45.5463 21.5662 44.945 23.3506 44.1934 25.1351C 43.6423 24.0644 43.0911 22.9937 42.4898 21.9741ZM 15.1821 13.7147C 14.3303 8.36136 15.0318 4.58855 17.0861 3.36494C 17.5872 3.05903 18.1885 2.90608 18.8398 2.90608C 21.8462 2.90608 25.6041 5.40429 29.3621 9.1771C 27.6084 11.1145 25.8547 13.3578 24.1511 15.805C 21.2449 16.0599 18.4891 16.5188 15.8836 17.0796C 15.5829 15.907 15.3825 14.7853 15.1821 13.7147ZM 2.80593 28.5C 2.80593 26.1038 5.66197 23.5546 10.6726 21.6682C 11.6747 21.2603 12.777 20.9034 13.8793 20.5975C 14.681 23.1467 15.6832 25.8488 16.8857 28.551C 15.6832 31.2531 14.6309 33.9043 13.8793 36.4535C 6.96473 34.4141 2.80593 31.3551 2.80593 28.5ZM 17.0861 53.6351C 15.0318 52.4114 14.3303 48.6386 15.1821 43.2853C 15.3324 42.2147 15.5829 41.093 15.8836 39.9204C 18.4891 40.5322 21.2449 40.9401 24.1511 41.195C 25.8547 43.6422 27.6084 45.8345 29.3621 47.8229C 25.6542 51.5447 21.8963 54.0939 18.8398 54.0939C 18.1885 54.0939 17.5872 53.941 17.0861 53.6351ZM 47.5505 43.2853C 48.4023 48.6386 47.7009 52.4114 45.6465 53.6351C 45.1454 53.941 44.5442 54.0939 43.8928 54.0939C 40.8864 54.0939 37.1285 51.5957 33.3706 47.8229C 35.1243 45.8855 36.878 43.6422 38.5816 41.195C 41.4877 40.9401 44.2435 40.4812 46.8491 39.9204C 47.1497 41.093 47.3501 42.2147 47.5505 43.2853ZM 52.0601 35.3318C 51.058 35.7397 49.9556 36.0966 48.8533 36.4025C 48.0516 33.8533 47.0495 31.1512 45.8469 28.449C 47.0495 25.7469 48.1017 23.0957 48.8533 20.5465C 55.7679 22.5859 59.9267 25.6449 59.9267 28.5C 59.9267 30.8962 57.0206 33.4454 52.0601 35.3318Z"/>
</defs>
</svg>
